<?xml version="1.0" encoding="UTF-8" standalone="no"?><!DOCTYPE svg PUBLIC "-//W3C//DTD SVG 1.1//EN" "http://www.w3.org/Graphics/SVG/1.1/DTD/svg11.dtd"><svg width="100%" height="100%" viewBox="0 0 8683 1833" version="1.1" xmlns="http://www.w3.org/2000/svg" xmlns:xlink="http://www.w3.org/1999/xlink" xml:space="preserve" xmlns:serif="http://www.serif.com/" style="fill-rule:evenodd;clip-rule:evenodd;stroke-linejoin:round;stroke-miterlimit:2;"><g><text x="5534.588px" y="1405.388px" style="font-family:'Syne-Regular', 'Syne';font-size:1447.596px;">FRP</text><path d="M1083.763,1132.133c139.158,-124.058 392.433,-67.367 565.321,126.592l-504.287,449.492c-172.888,-193.954 -200.196,-452.113 -61.033,-576.083" style="fill:#c1c0c0;fill-opacity:0.56;"/><path d="M586.892,1336.488l-0.271,-1230.017l560.258,396.321l0,1187.879c0,5.967 -0.633,11.846 -1.717,17.542l-558.267,-371.725l-0.004,0Z"/><path d="M1146.879,1649.621l0,41.05c0,5.967 -0.633,11.846 -1.717,17.542l-558.267,-371.725l0,-59.858l559.987,372.992l-0.004,-0Z"/><path d="M1462.812,96.342l-1.987,638.2l245.225,174.967l1.538,747.25c0,0 114.204,-0.362 200.375,-0.542c25.046,-0.092 49.008,-10.129 66.642,-27.85c17.633,-17.813 27.487,-41.775 27.4,-66.821c-0.904,-278.229 -3.617,-1093.387 -4.521,-1371.258c-0.179,-51.904 -42.317,-93.95 -94.312,-93.95l-440.358,0l-0,0.004Z"/><path d="M1740.954,902.821l-30.471,44.579l-945.367,-646.342l30.471,-44.579l945.367,646.342Z"/><path d="M1087.742,1039.808c0,6.058 -1.083,11.754 -3.438,17.363c-2.263,5.517 -5.517,10.4 -9.767,14.65c-4.25,4.25 -9.133,7.504 -14.65,9.767c-5.604,2.35 -11.304,3.438 -17.362,3.438c-5.967,0 -11.754,-1.083 -17.271,-3.438c-5.517,-2.262 -10.4,-5.517 -14.65,-9.767c-4.25,-4.25 -7.504,-9.133 -9.854,-14.65c-2.263,-5.604 -3.438,-11.304 -3.438,-17.363c0,-5.967 1.175,-11.754 3.438,-17.271c2.35,-5.517 5.604,-10.4 9.854,-14.65c4.25,-4.25 9.133,-7.504 14.65,-9.767c5.517,-2.35 11.304,-3.438 17.271,-3.438c6.058,0 11.754,1.083 17.362,3.438c5.517,2.262 10.4,5.517 14.65,9.767c4.25,4.25 7.504,9.133 9.767,14.65c2.35,5.517 3.438,11.304 3.438,17.271Z" style="fill:#fff7f7;fill-rule:nonzero;"/><path d="M1544.375,1435.229c0,0.363 -2.533,0.633 -7.504,0.904c-5.062,0.271 -11.121,0.363 -18.267,0.363c-7.142,0 -13.2,-0.092 -18.175,-0.363c-5.062,-0.271 -7.596,-0.542 -7.596,-0.904c0,-0.362 2.533,-0.633 7.596,-0.904c4.975,-0.271 11.033,-0.362 18.175,-0.362c7.142,0 13.2,0.092 18.267,0.362c4.975,0.271 7.504,0.542 7.504,0.904Z" style="fill:#fff4f4;fill-rule:nonzero;"/><path d="M3121.396,1198.592l-59.95,24.233l0,-758.375l189.617,0l0,922.4l-189.617,0l-745.625,-728.533l59.858,-24.233l0,752.767l-189.525,0l0,-922.4l189.525,0l745.713,734.142l0.004,0Z" style="fill-rule:nonzero;"/><rect x="3333.929" y="464.454" width="151.267" height="922.4"/><rect x="5430.896" y="464.454" width="151.267" height="940.938"/><path d="M3570.888,1072.954l192.508,0c4.25,31.554 18.537,58.938 45.575,83.625c25.679,24.688 61.308,45.292 104.075,58.938c42.771,13.733 91.238,20.6 144.042,20.6c48.467,0 88.342,-5.475 119.721,-15.125c31.375,-9.563 54.163,-24.688 69.896,-42.421c15.642,-17.821 22.788,-39.812 22.788,-65.804c0,-24.687 -10.038,-43.9 -28.483,-57.546c-18.538,-13.733 -48.558,-24.688 -89.879,-32.946c-41.325,-8.171 -94.037,-17.821 -161.042,-27.383c-52.808,-6.867 -101.275,-17.821 -148.292,-30.163c-47.021,-13.733 -86.988,-30.163 -122.613,-52.071c-35.625,-20.6 -64.2,-46.592 -84.092,-76.758c-19.983,-30.163 -29.929,-67.196 -29.929,-109.704c0,-52.071 15.642,-97.275 45.575,-137c31.375,-39.725 76.95,-69.892 138.254,-91.883c61.308,-21.904 135.454,-32.858 223.887,-32.858c132.558,0 235.188,27.383 306.533,80.842c71.254,54.85 106.879,128.829 105.433,224.796l-185.275,0c-4.342,-53.463 -27.125,-93.188 -69.896,-116.483c-42.771,-23.296 -98.379,-35.642 -162.487,-35.642c-61.308,0 -111.221,8.258 -151.188,25.992c-39.875,17.821 -58.412,46.679 -59.858,89.1c0,16.517 4.342,31.554 14.287,43.9c9.946,12.346 25.679,23.296 48.467,31.554c22.788,9.562 54.163,17.733 92.683,25.992c38.521,8.258 86.988,16.429 145.4,24.688c54.163,6.867 104.075,17.821 148.292,28.775c44.217,12.346 82.646,28.775 114.021,47.983c31.375,19.213 55.608,45.204 72.7,73.975c17.092,30.163 25.679,67.196 25.679,111.008c0,53.462 -14.288,100.054 -42.771,139.867c-28.483,39.725 -74.146,71.196 -134.004,93.188c-59.858,21.904 -138.254,32.858 -233.833,32.858c-68.45,0 -128.308,-6.867 -181.025,-20.517c-52.808,-13.733 -96.933,-32.946 -135.454,-57.633c-38.521,-23.296 -68.45,-49.287 -92.683,-78.062c-24.233,-28.775 -41.325,-56.242 -49.912,-85.017c-9.946,-28.775 -14.196,-53.462 -12.842,-76.758l-4.25,4.087l-0.008,0.008Z" style="fill-rule:nonzero;"/><path d="M4457.663,1072.954l192.421,0c4.342,31.554 18.538,58.938 45.662,83.625c25.679,24.688 61.308,45.292 104.075,58.938c42.771,13.733 91.238,20.6 143.954,20.6c48.467,0 88.433,-5.475 119.808,-15.125c31.375,-9.563 54.162,-24.688 69.804,-42.421c15.733,-17.821 22.875,-39.812 22.875,-65.804c0,-24.687 -10.038,-43.9 -28.575,-57.546c-18.538,-13.733 -48.467,-24.688 -89.787,-32.946c-41.325,-8.171 -94.129,-17.821 -161.133,-27.383c-52.717,-6.867 -101.183,-17.821 -148.204,-30.163c-47.108,-13.733 -86.987,-30.163 -122.612,-52.071c-35.625,-20.6 -64.2,-46.592 -84.183,-76.758c-19.892,-30.163 -29.929,-67.196 -29.929,-109.704c0,-52.071 15.733,-97.275 45.662,-137c31.375,-39.725 76.95,-69.892 138.254,-91.883c61.308,-21.904 135.454,-32.858 223.887,-32.858c132.558,0 235.187,27.383 306.442,80.842c71.342,54.85 106.971,128.829 105.525,224.796l-185.275,0c-4.342,-53.463 -27.125,-93.188 -69.896,-116.483c-42.771,-23.296 -98.379,-35.642 -162.488,-35.642c-61.308,0 -111.221,8.258 -151.188,25.992c-39.875,17.821 -58.412,46.679 -59.858,89.1c0,16.517 4.25,31.554 14.288,43.9c9.946,12.346 25.679,23.296 48.467,31.554c22.788,9.562 54.163,17.733 92.683,25.992c38.429,8.258 86.896,16.429 145.4,24.688c54.163,6.867 104.075,17.821 148.292,28.775c44.125,12.346 82.646,28.775 114.021,47.983c31.375,19.213 55.608,45.204 72.7,73.975c17.092,30.163 25.679,67.196 25.679,111.008c0,53.462 -14.288,100.054 -42.771,139.867c-28.483,39.725 -74.146,71.196 -134.004,93.188c-59.858,21.904 -138.346,32.858 -233.833,32.858c-68.45,0 -128.308,-6.867 -181.025,-20.517c-52.808,-13.733 -96.933,-32.946 -135.454,-57.633c-38.521,-23.296 -68.45,-49.287 -92.683,-78.062c-24.233,-28.775 -41.325,-56.242 -49.912,-85.017c-9.946,-28.775 -14.288,-53.462 -12.842,-76.758l-4.25,4.087l0.004,0.008Z" style="fill-rule:nonzero;"/></g></svg>