<?xml version="1.0" encoding="UTF-8" standalone="no"?><!DOCTYPE svg PUBLIC "-//W3C//DTD SVG 1.1//EN" "http://www.w3.org/Graphics/SVG/1.1/DTD/svg11.dtd"><svg width="100%" height="100%" viewBox="0 0 4000 4000" version="1.1" xmlns="http://www.w3.org/2000/svg" xmlns:xlink="http://www.w3.org/1999/xlink" xml:space="preserve" xmlns:serif="http://www.serif.com/" style="fill-rule:evenodd;clip-rule:evenodd;stroke-linejoin:round;stroke-miterlimit:2;"><path d="M1659.803,2371.232c224.783,-200.37 633.98,-108.723 913.213,204.532l-814.558,726.091c-279.233,-313.254 -323.438,-730.252 -98.655,-930.622" style="fill:#c1c0c0;fill-opacity:0.56;"/><path d="M857.325,2701.36l-0.41,-1986.841l904.891,640.2l0,1918.719c0,9.648 -0.966,19.16 -2.831,28.416l-901.65,-600.494Z"/><path d="M1761.806,3207.138l0,66.3c0,9.648 -0.966,19.16 -2.831,28.416l-901.65,-600.494l-0.02,-96.615l904.501,602.393Z"/><path d="M2272.154,698.161l-3.206,1030.936l396.055,282.672l2.587,1207.032c0,0 184.38,-0.587 323.629,-1.016c40.402,-0.127 79.106,-16.297 107.591,-44.972c28.485,-28.659 44.401,-67.474 44.274,-107.876c-1.476,-449.422 -5.792,-1766.187 -7.252,-2214.942c-0.27,-83.946 -68.395,-151.849 -152.341,-151.849c-0,-0 -711.337,-0 -711.337,-0l-0,0.016Z"/><path d="M2721.433,2000.867l-49.257,72.045l-1527.044,-1043.996l49.257,-72.045l1527.044,1043.996Z"/><circle cx="1593.316" cy="2222.238" r="73.013" style="fill:#fff7f7;"/><ellipse cx="2362.282" cy="2860.888" rx="41.612" ry="2.116" style="fill:#fff4f4;"/></svg>